<?xml version="1.0" encoding="UTF-8" standalone="no"?>
<!-- Created with Inkscape (http://www.inkscape.org/) -->

<svg
   xmlns:dc="http://purl.org/dc/elements/1.1/"
   xmlns:cc="http://creativecommons.org/ns#"
   xmlns:rdf="http://www.w3.org/1999/02/22-rdf-syntax-ns#"
   xmlns:svg="http://www.w3.org/2000/svg"
   xmlns="http://www.w3.org/2000/svg"
   xmlns:sodipodi="http://sodipodi.sourceforge.net/DTD/sodipodi-0.dtd"
   xmlns:inkscape="http://www.inkscape.org/namespaces/inkscape"
   width="210mm"
   height="210mm"
   viewBox="0 0 210 210"
   version="1.1"
   id="svg4631"
   inkscape:version="0.92.3 (2405546, 2018-03-11)"
   sodipodi:docname="logo.svg">
  <defs
     id="defs4625" />
  <sodipodi:namedview
     id="base"
     pagecolor="#ffffff"
     bordercolor="#666666"
     borderopacity="1.0"
     inkscape:pageopacity="0.0"
     inkscape:pageshadow="2"
     inkscape:zoom="0.35"
     inkscape:cx="-64.285714"
     inkscape:cy="560"
     inkscape:document-units="mm"
     inkscape:current-layer="layer1"
     showgrid="false"
     inkscape:window-width="1366"
     inkscape:window-height="715"
     inkscape:window-x="-8"
     inkscape:window-y="-8"
     inkscape:window-maximized="1" />
  <metadata
     id="metadata4628">
    <rdf:RDF>
      <cc:Work
         rdf:about="">
        <dc:format>image/svg+xml</dc:format>
        <dc:type
           rdf:resource="http://purl.org/dc/dcmitype/StillImage" />
        <dc:title></dc:title>
      </cc:Work>
    </rdf:RDF>
  </metadata>
  <g
     inkscape:label="Layer 1"
     inkscape:groupmode="layer"
     id="layer1"
     transform="translate(0,-87)">
    <path
       id="path4518"
       d="M 163.06208,92.169043 H 46.938291 c -2.563586,0 -4.644843,2.080889 -4.644843,4.644852 V 254.74166 c 0,2.56321 2.080875,4.64484 4.644843,4.64484 2.564354,0 4.644846,-2.08202 4.644846,-4.64484 V 101.45913 H 158.41684 v 3.33715 l -48.77181,35.40864 v 151.62604 l 49.03505,-35.60124 c 0.62582,1.82801 2.34065,3.15488 4.382,3.15488 2.56281,0 4.64447,-2.07972 4.64447,-4.64485 V 96.811973 c 3.7e-4,-2.564345 -2.08166,-4.64293 -4.64447,-4.64293 z M 128.07092,219.55136 c -2.18869,0 -4.01441,-2.70364 -4.48599,-6.3255 h -5.23039 v -4.06429 h 5.30484 c 0.5556,-3.3997 2.30687,-5.9015 4.41154,-5.9015 2.54479,0 4.60646,3.6445 4.60646,8.1466 0.003,4.4975 -2.06167,8.14469 -4.60646,8.14469 z"
       inkscape:connector-curvature="0"
       style="fill:#4285f4;fill-opacity:1;stroke-width:0.38371283"
       inkscape:export-xdpi="300"
       inkscape:export-ydpi="300" />
  </g>
</svg>
